<svg id="Layer_1" data-name="Layer 1" xmlns="http://www.w3.org/2000/svg" xmlns:xlink="http://www.w3.org/1999/xlink" viewBox="0 0 406.25 385.87"><defs><style>.cls-1{fill:#dcd0ff;}.cls-2{fill:#8ad0ff;}.cls-3{fill:#15a3ff;}.cls-4,.cls-5,.cls-6,.cls-7,.cls-9{fill:none;}.cls-11,.cls-12,.cls-4,.cls-5{stroke:#000;}.cls-11,.cls-12,.cls-4,.cls-7{stroke-miterlimit:10;}.cls-11,.cls-12,.cls-4,.cls-5,.cls-6,.cls-7{stroke-width:2px;}.cls-5,.cls-6{stroke-linejoin:round;}.cls-6,.cls-7{stroke:#15a3ff;stroke-linecap:round;}.cls-8{fill:#fff7f6;}.cls-10{fill:#f9c6d1;}.cls-12{fill:#7200ff;}.cls-13{fill:url(#radial-gradient);}.cls-14{fill:url(#radial-gradient-2);}.cls-15{fill:url(#radial-gradient-3);}.cls-16{fill:url(#radial-gradient-4);}.cls-17{fill:#0060f4;}</style><radialGradient id="radial-gradient" cx="380.25" cy="127.09" r="3.88" gradientUnits="userSpaceOnUse"><stop offset="0" stop-color="#fff"/><stop offset="0.7" stop-color="#3f95ff"/></radialGradient><radialGradient id="radial-gradient-2" cx="366.88" cy="111.4" r="7.17" gradientUnits="userSpaceOnUse"><stop offset="0" stop-color="#fff"/><stop offset="0.73" stop-color="#51d5ff"/></radialGradient><radialGradient id="radial-gradient-3" cx="394.03" cy="98" r="12.22" gradientUnits="userSpaceOnUse"><stop offset="0" stop-color="#fff"/><stop offset="0.73" stop-color="#65a5f1"/></radialGradient><radialGradient id="radial-gradient-4" cx="380.25" cy="74.41" r="7.17" gradientUnits="userSpaceOnUse"><stop offset="0" stop-color="#fff"/><stop offset="0.73" stop-color="#87cac5"/></radialGradient></defs><path class="cls-1" d="M142.29,187.31a11.66,11.66,0,0,1-6.54,1.73,13.37,13.37,0,0,1-6.73-2.27,21.65,21.65,0,0,1-7-7,15.91,15.91,0,0,1-2.48-8.21,13.88,13.88,0,0,1,2.28-7.82q2.16-3.36,5-4A7.27,7.27,0,0,1,132.5,161a7.19,7.19,0,0,1,2.62,2.63,2.5,2.5,0,0,1-.08,2.65,2.57,2.57,0,0,1-1.29,1.11,1.71,1.71,0,0,1-1.5-.26,8.49,8.49,0,0,1-.95-.79,9.79,9.79,0,0,0-1.37-1.14q-2.84-1.83-4.77,1.19a7.84,7.84,0,0,0-1.19,4.78,11.24,11.24,0,0,0,2,5.56,18,18,0,0,0,5.44,5.12,9.15,9.15,0,0,0,7.11,1.63q3.39-.76,6-4.85a20.24,20.24,0,0,0,2.11-4.42,37.83,37.83,0,0,0,1.39-5.6,2.6,2.6,0,0,1,.31-.9,1,1,0,0,1,.85-.51,2,2,0,0,1,1.13.38,3.5,3.5,0,0,1,1.48,3.85,25.7,25.7,0,0,1-1.54,5.5,29,29,0,0,1-2.46,4.82A17.12,17.12,0,0,1,142.29,187.31Z" transform="translate(-57.61 -93.04)"/><path class="cls-1" d="M160.94,152.58a2.27,2.27,0,0,1,1.11.57,3.42,3.42,0,0,1,1.29,2,19.34,19.34,0,0,1,.2,4.74,7,7,0,0,1-1.69,3.93,3.61,3.61,0,0,1-2.68,1.47,4.63,4.63,0,0,1-3-1.31,24.07,24.07,0,0,1-2.49-2.79,18.53,18.53,0,0,0-2.14-2.45c-.3-.26-.54-.28-.71-.07s-.19.86.06,1.84A17.4,17.4,0,0,0,152.2,164a26,26,0,0,0,2.34,3.88q1.8,2.46,0,4.57a1.44,1.44,0,0,1-1.55.6,8.1,8.1,0,0,1-2.42-1.59c-.6-.51-1.07-.93-1.41-1.25l-2.24-1.94a64.65,64.65,0,0,1-8.3-8.58,35.64,35.64,0,0,1-5.68-9.34c-1.16-3-1-5.26.33-6.87a3.24,3.24,0,0,1,2.89-1.16,6.43,6.43,0,0,1,3.58,1.65,16.22,16.22,0,0,1,4.5,6.68,50.37,50.37,0,0,1,2.55,11.49c.93.88,1.91,1.77,2.95,2.64a20.8,20.8,0,0,1-2.15-5.39,10.56,10.56,0,0,1-.24-4.09,5.42,5.42,0,0,1,1.08-2.59,2.13,2.13,0,0,1,3.39-.28,28.82,28.82,0,0,1,3.45,4,27.67,27.67,0,0,0,2.79,3.29c.76.64,1.36.68,1.83.14a3,3,0,0,0,.44-1.93,29.44,29.44,0,0,0-.48-4,1.29,1.29,0,0,1,.25-1.09A.84.84,0,0,1,160.94,152.58Zm-24.88-3.77a32.87,32.87,0,0,0,2.9,4.53,68,68,0,0,0,4.58,5.5,26.69,26.69,0,0,0-2-6.69,13.68,13.68,0,0,0-3.44-4.88,5,5,0,0,0-1.54-1,.83.83,0,0,0-1,.16C135.28,146.79,135.44,147.58,136.06,148.81Z" transform="translate(-57.61 -93.04)"/><path class="cls-1" d="M170,144.45a2.35,2.35,0,0,1,1.05.68,3.42,3.42,0,0,1,1.11,2.13A15.93,15.93,0,0,1,172,152a7.42,7.42,0,0,1-2.15,3.87,5.13,5.13,0,0,1-5.52,1.26,16.28,16.28,0,0,1-6.48-4.37,51.64,51.64,0,0,1-6.36-8.17,34.44,34.44,0,0,1-4.48-9.49q-1.28-4.54,1-6.75a3.13,3.13,0,0,1,3.15-.78,9,9,0,0,1,4,2.66,26.8,26.8,0,0,1,5.4,9,56.06,56.06,0,0,1,3.32,12.86,4.28,4.28,0,0,0,2.13,1,2,2,0,0,0,1.56-.62,4.31,4.31,0,0,0,1.29-2.49,20.09,20.09,0,0,0,0-4.17,1.31,1.31,0,0,1,.35-1.07A.85.85,0,0,1,170,144.45Zm-19.33-9.39a51.33,51.33,0,0,0,4,6.76,54.51,54.51,0,0,0,5.47,6.86,46.75,46.75,0,0,0-3.08-9.12,23.88,23.88,0,0,0-4.44-6.76c-1.31-1.34-2.22-1.77-2.71-1.29S149.78,133.09,150.7,135.06Z" transform="translate(-57.61 -93.04)"/><path class="cls-1" d="M181.38,131.51a2.56,2.56,0,0,1,1,.78q1.13,1.38.51,2.31a16.52,16.52,0,0,1-3.21,3.79,9.18,9.18,0,0,1,1,5.61,6.83,6.83,0,0,1-2.44,4.42,6.57,6.57,0,0,1-3.62,1.58,6.74,6.74,0,0,1-3.65-.68,9.13,9.13,0,0,1-3.07-2.46,11.25,11.25,0,0,1-2.36-4.55,8.5,8.5,0,0,1,.11-4.54,7.43,7.43,0,0,1,2.44-3.61,5.76,5.76,0,0,1,4.73-1.38,8.32,8.32,0,0,1,4.6,2.42,22.08,22.08,0,0,0,2.73-3.2,2,2,0,0,1,.36-.39A.82.82,0,0,1,181.38,131.51ZM177,143.16a5.38,5.38,0,0,0-.86-2.88,5.15,5.15,0,0,1-2.65-.46,6.12,6.12,0,0,1-2.83-2.65l-.15.11a2.92,2.92,0,0,0-1,2.67,7,7,0,0,0,1.79,3.72,5.2,5.2,0,0,0,2.59,1.9,2.32,2.32,0,0,0,2.12-.36A2.69,2.69,0,0,0,177,143.16Z" transform="translate(-57.61 -93.04)"/><path class="cls-1" d="M193.53,129a2.28,2.28,0,0,1,.91.86,4.08,4.08,0,0,1,.76,2.26,7.2,7.2,0,0,1-.87,3.57,8.6,8.6,0,0,1-2.84,3,7.16,7.16,0,0,1-5.76,1.31,8.17,8.17,0,0,1-4.84-3.69,10.59,10.59,0,0,1-1.76-4.54,8.79,8.79,0,0,1,.52-4.57,7.47,7.47,0,0,1,2.86-3.47,4.66,4.66,0,0,1,3.57-.86,4.61,4.61,0,0,1,3,2.15,5.94,5.94,0,0,1,.92,4.66q-.5,2.53-3.55,5.89a3.13,3.13,0,0,0,3.44-.26,4.22,4.22,0,0,0,1.68-2,12.17,12.17,0,0,0,.57-3.23,1.22,1.22,0,0,1,.52-1A.84.84,0,0,1,193.53,129Zm-10.56.68a7.43,7.43,0,0,0,1.37,3.72l0,.06a8.49,8.49,0,0,0,2-3.21,3.06,3.06,0,0,0-.3-2.7,1.6,1.6,0,0,0-.95-.72A1.35,1.35,0,0,0,184,127,2.73,2.73,0,0,0,183,129.63Z" transform="translate(-57.61 -93.04)"/><path class="cls-1" d="M228,111.43a2.43,2.43,0,0,1,.74,1,3.55,3.55,0,0,1,.27,2.39,13.79,13.79,0,0,1-2.3,4.79,10.22,10.22,0,0,1-3.89,2.78,12.64,12.64,0,0,1-3.45,1,40.92,40.92,0,0,1-4.21.26,35.23,35.23,0,0,0-4.34.23,6.08,6.08,0,0,1-3.82,5.41,5.38,5.38,0,0,1-3.41.46,2.92,2.92,0,0,1-2.1-1.73,3.58,3.58,0,0,1,.39-3.46,8,8,0,0,1,3.76-3l.44-.19-3.68-10.14a17.21,17.21,0,0,1-1.21-6.13,12,12,0,0,1,1.18-5,11.73,11.73,0,0,1,2.67-3.6A14,14,0,0,1,209,94a8.49,8.49,0,0,1,6.46-.55,8.14,8.14,0,0,1,4.83,7.77,2.52,2.52,0,0,1-1.52,2.17,2.46,2.46,0,0,1-1.69.19,1.73,1.73,0,0,1-1.11-1.07,8,8,0,0,1-.35-1.18,8.85,8.85,0,0,0-.54-1.79,3.31,3.31,0,0,0-1.81-1.89,3.78,3.78,0,0,0-2.89.27,6.2,6.2,0,0,0-3.77,4q-.78,2.67.6,7l2.56,8a27.88,27.88,0,0,1,.79,3q2.33-.57,5.94-1.17c1.41-.24,2.48-.43,3.22-.59a10,10,0,0,0,1.88-.58,8.63,8.63,0,0,0,3.09-2.13,8.74,8.74,0,0,0,1.74-3.28,1.32,1.32,0,0,1,.71-.87A.88.88,0,0,1,228,111.43Z" transform="translate(-57.61 -93.04)"/><path class="cls-1" d="M228.43,118.73a6.71,6.71,0,0,1-2.53-3.81,12.11,12.11,0,0,1-.24-5.77,11.69,11.69,0,0,1,2.32-5.1,8.2,8.2,0,0,1,4.19-2.89,1.43,1.43,0,0,1,1.13,0,2.66,2.66,0,0,1,.76,1,9.8,9.8,0,0,1,1.52-.59c1.16-.34,1.87-.09,2.11.74a27.68,27.68,0,0,1,.49,3.71,36.3,36.3,0,0,0,.83,5.92,1.39,1.39,0,0,0,.51.78.92.92,0,0,0,.79.12,2.8,2.8,0,0,0,1.38-1.35,30.89,30.89,0,0,0,1.78-3.58,1.29,1.29,0,0,1,.82-.77.84.84,0,0,1,.85.22,2.21,2.21,0,0,1,.6,1.09,3.43,3.43,0,0,1,0,2.4,18.87,18.87,0,0,1-2.21,4,5.46,5.46,0,0,1-2.8,2.16,3.43,3.43,0,0,1-2.39-.18,5.1,5.1,0,0,1-2.1-1.75c-.66,2.34-1.92,3.79-3.79,4.33A4.51,4.51,0,0,1,228.43,118.73Zm5.45-4.74a6.19,6.19,0,0,0,.32-2.75l-.58-6.92a4.45,4.45,0,0,0-2.43,1.92,8,8,0,0,0-1.18,3.44,10,10,0,0,0,.35,4,2.6,2.6,0,0,0,.92,1.5,1.56,1.56,0,0,0,1.38.18A2,2,0,0,0,233.88,114Z" transform="translate(-57.61 -93.04)"/><path class="cls-1" d="M244.8,114.46a6.5,6.5,0,0,1-1.7-3.71,31.68,31.68,0,0,1-.5-5.07,32.53,32.53,0,0,1,.37-5,3.12,3.12,0,0,1,.75-1.74,3.66,3.66,0,0,1,2-.83,1.82,1.82,0,0,1,1.16.06,1,1,0,0,1,.44.71,17,17,0,0,1-.06,2c-.09.94-.15,1.79-.17,2.54a34,34,0,0,0,.15,5.23,2.3,2.3,0,0,0,.37,1,.63.63,0,0,0,.63.21q.56-.09,1.2-1.35a16.13,16.13,0,0,0,1.19-3.66,44.91,44.91,0,0,0,.84-5.72,2.39,2.39,0,0,1,2.35-2.5,1.41,1.41,0,0,1,1.22.22,2,2,0,0,1,.56,1.2,14.83,14.83,0,0,1,.2,2.05c0,.75,0,1.53.07,2.33,0,1.6.07,3,.14,4.35a38.21,38.21,0,0,0,.53,4.39,3,3,0,0,1-.22,2.09,2.48,2.48,0,0,1-1.74.92,2.25,2.25,0,0,1-2-.39,5,5,0,0,1-1-2.66q-.08-.41-.24-1.8a8.91,8.91,0,0,1-1.17,4.21,3.57,3.57,0,0,1-2.38,1.8A3.29,3.29,0,0,1,244.8,114.46Z" transform="translate(-57.61 -93.04)"/><path class="cls-2" d="M433.88,271.43c-.19,69.6-46.93,129-110.78,148,20-10.42,46.18-28.36,54.15-57.35l.3-1.13c.27-1.05.51-2.09.71-3.11,0-.13.06-.26.08-.39.12-.59.22-1.17.32-1.74q.45-2.76.64-5.38c.05-.61.08-1.21.11-1.81.09-2,.08-4,0-5.9-.3,0-.61,0-.93,0a8.94,8.94,0,0,1-.78-17.85l-.06-.64c-.06-.59-.11-1.19-.16-1.79l0-.4c0-.61-.1-1.23-.14-1.85s-.09-1.37-.12-2.07-.05-1.41-.07-2.12,0-1.42,0-2.14a80.76,80.76,0,0,1,1.07-13.18c3-18.28,13.49-44.24,49.68-72.46l0,0A154.63,154.63,0,0,1,433.88,271.43Z" transform="translate(-57.61 -93.04)"/><path class="cls-3" d="M378.17,300.67a80.76,80.76,0,0,0-1.07,13.18c0,.72,0,1.44,0,2.14s0,1.42.07,2.12.07,1.39.12,2.07.08,1.24.14,1.85c0,.11,0,.21,0,.32,0,.55.09,1.1.15,1.66,0,.27.05.57.08.85a8.94,8.94,0,0,0,.78,17.85c.32,0,.63,0,.93,0,.07,1.93.08,3.89,0,5.9,0,.6-.06,1.2-.11,1.81q-.19,2.63-.64,5.38c-.1.57-.2,1.15-.32,1.74,0,.13,0,.26-.08.39-.2,1-.44,2.06-.71,3.11l-.3,1.13c-8,29-34.13,46.93-54.15,57.35h0c-3.63,1.09-7.33,2-11.07,2.85-3.7-8.18-7.31-15.52-3.71-22s12.72-8.52,19.33-9.17a55.36,55.36,0,0,0-32.49-7.09c-12.37,1.25-32.58,7.8-34.23,19-1.26,8.58,9.13,14.63,18.51,22.79a154.12,154.12,0,0,1-86.68-26.22,156,156,0,0,1-23.22-19.1c-17.35-17.35-43.13-23.77-66.14-15.27-.71.26-1.41.54-2.11.82a70.34,70.34,0,0,0-19.23,11.68,86.9,86.9,0,0,1,63-29.07,153.84,153.84,0,0,1-20.46-66.31c-.2-2.61-.32-5.25-.38-7.9,0-1.17,0-2.34,0-3.51q0-6.15.47-12.19.57-7.27,1.8-14.35a22.67,22.67,0,0,0-2.54-15.08,31.08,31.08,0,0,0-56.66,6.13c.45,0,.89-.09,1.35-.1A10.33,10.33,0,1,1,58,247.27a6.17,6.17,0,0,1-.09-.62,40.82,40.82,0,0,1-.29-5c0-23.29,18.31-42.17,40.89-42.17A40.6,40.6,0,0,1,133,219.09a154.92,154.92,0,0,1,146-103c3.87,0,16.33.63,21.06,1.8,9.28,2.3,17.16,10.89,17,21.27a21.7,21.7,0,1,1-34.58-17.84A143,143,0,0,0,143,252.92a87.73,87.73,0,0,1,101.78-18.79,70.9,70.9,0,0,0-92.07,64.54c-.41,9.9-3.6,27.67,2.76,31a8.2,8.2,0,0,0,3.12.5c9.75.68,14.82-3.94,16.85-2.34a.55.55,0,0,1,.15.36c.27,2.22-3.55,13-5,16.85a.57.57,0,0,0,.77.72l109.83-50.32A9,9,0,1,0,297.34,288l127-58.21.13-.05h0l.11,0,.06,0,.11-.05.23-.1.37-.17.26-.12,1.08-.5.2-.09.16-.07h0l.17-.08.09,0,.15-.07.19-.09h0l.1,0C391.66,256.43,381.17,282.39,378.17,300.67Z" transform="translate(-57.61 -93.04)"/><path class="cls-4" d="M158.54,330.17" transform="translate(-57.61 -93.04)"/><line class="cls-4" x1="265.49" y1="326.43" x2="265.48" y2="326.43"/><path class="cls-2" d="M312,422.32c3.18,7,6.41,14.7,5.16,23-1.4,9.23-8.76,21.53-36.38,33.63,6.5-7.45,14.17-18.75,12.53-31.18-1.23-9.38-7.32-16.14-13.9-21.85-9.38-8.16-19.77-14.21-18.51-22.79,1.65-11.21,21.86-17.76,34.23-19a55.36,55.36,0,0,1,32.49,7.09c-6.61.65-15.66,2.59-19.33,9.17S308.32,414.14,312,422.32Z" transform="translate(-57.61 -93.04)"/><path class="cls-5" d="M280.18,382.3" transform="translate(-57.61 -93.04)"/><path class="cls-5" d="M170,346.36" transform="translate(-57.61 -93.04)"/><path class="cls-2" d="M170,216.34c8.88-12.18,16.37-15,21.77-15.12,10.75-.23,17,10.12,33.1,11a39.35,39.35,0,0,0,11.58-1.13A23.81,23.81,0,0,1,226.16,218c-11.43,3.69-19.6-4.87-35.1-5.58A48.86,48.86,0,0,0,170,216.34Z" transform="translate(-57.61 -93.04)"/><path class="cls-6" d="M424.49,238.3q-8,31.65-18,65.43c-7.55,25.15-15.45,49.11-23.54,71.84" transform="translate(-57.61 -93.04)"/><path class="cls-6" d="M427.11,250.57a253.29,253.29,0,0,1-36.25,119.81" transform="translate(-57.61 -93.04)"/><path class="cls-7" d="M384.13,356A345.56,345.56,0,0,1,418.78,242.2" transform="translate(-57.61 -93.04)"/><path class="cls-8" d="M241,302.22c1.95-2.25,5.34-1.23,6.57-3.13,1.08-1.66,0-4.78-1.95-5.86-3.18-1.73-8.85,1.7-11.63,5.36a13.85,13.85,0,0,0-2.69,8.64c1.46-1.67,2.43-1.89,3.05-1.79.82.14,1,.87,2,1.28a4.67,4.67,0,0,0,3.61-.37A5.48,5.48,0,0,1,241,302.22Z" transform="translate(-57.61 -93.04)"/><path class="cls-9" d="M319.89,230.08c4.73-.69,5.71-12.73,8.65-21.33L318,201.43c-3.15,3.87-5.55,9.23-8.91,17.4a19,19,0,0,0,1.85,3.44C312.65,224.85,316.46,230.58,319.89,230.08Z" transform="translate(-57.61 -93.04)"/><path class="cls-10" d="M288.84,204.15c-1.6-3.45,2.62-7,.47-11.79a6.62,6.62,0,0,0-2.75-2.78c-2.17-1.21-4.43-.91-7-.72-6.63.49-7.18-.4-10.27,0-6.43.93-11.4,5.85-14.37,9.65a1.71,1.71,0,0,1-1.85.53l-4.72-1.63a1.61,1.61,0,0,0-2.17,1.61A43.54,43.54,0,0,0,258,223.61c3.61,3.7,12.09,12.38,20.83,10.61,3.17-.64,6.38-2.54,17.65-19.45,1.67-2.5,3.15-4.79,4.5-6.9C295.91,206.48,290.39,207.5,288.84,204.15Z" transform="translate(-57.61 -93.04)"/><path class="cls-10" d="M310.13,194.33c-2.55,3.22-5.46,7.71-9.46,13.65a12.55,12.55,0,0,1,5.82,3.11c2.53,2.49,2,4.35,3.41,7.74A34.48,34.48,0,0,1,314,207.12a36.64,36.64,0,0,1,6-7.8Z" transform="translate(-57.61 -93.04)"/><path class="cls-10" d="M329.43,208.25c-2.94,8.6-3.92,20.64-8.65,21.33-3.43.5-7.24-5.22-9-7.8a20.1,20.1,0,0,1-1.86-3.44c-.51,1.24-1,2.53-1.6,3.9-5.25,12.87-7.88,19.3-6.06,26.4,1.64,6.4,7.06,16,13.18,15.73l.4,0c6.43-.72,15.5-21.57,15.5-21.57,4.48-10.29,6.95-17.52,7.74-19.88,1.75-5.2,3-9.6,3.91-12.8Z" transform="translate(-57.61 -93.04)"/><path class="cls-10" d="M315.51,283.76c-1.09-3.53-7.81-6.73-15.16-7.86a20.11,20.11,0,0,1-2.66,10.42c-4.07,6.56-13.68,10.32-17.08,7.39-2.9-2.49-2.44-9.34,1.13-13.66,3.83-4.64,11.26-6.4,18.61-4.15-3.48-21.15-11.62-34.79-19.84-35s-15,13.11-16.74,16.86c-8.86,19.21-2.66,39.94-.11,47.25-3.4,2-6.3,3.64-8.54,4.92-6.33,3.61-8.54,4.79-10.23,4.55a3.09,3.09,0,0,1-.92-.27c-3.75-1.52-4.06-7.13-4.1-8.43a26.67,26.67,0,0,0-5.3-1.23,25.05,25.05,0,0,0-3.09-.22,14,14,0,0,0-.22,4.47c1.06,9.16,11.25,14.25,12.88,15C304.06,297.27,316.66,287.49,315.51,283.76Z" transform="translate(-57.61 -93.04)"/><path class="cls-8" d="M321.08,198.32c1.53-1.28,4.7-3.67,4.24-5.78s-4.6-3.63-7.89-3.28-5.52,2.39-8.35,6.42a4.43,4.43,0,0,1,3.25,1.19c.78.89.58,1.76,1.2,2.8.49.82,1.54,1.83,4.08,2.33A38,38,0,0,1,321.08,198.32Z" transform="translate(-57.61 -93.04)"/><path class="cls-8" d="M341.3,202.23a7,7,0,0,0-6.15-1.77c-3,.72-4.37,3.8-5.26,5.84a13.55,13.55,0,0,0-1,3.58,4.67,4.67,0,0,0,2.4,2.54c2.36.94,4.45-1.11,6.48-.41,1.15.4,2.43,1.72,3,5.8a19.6,19.6,0,0,0,2.31-8.79C343.13,206.4,343.16,204,341.3,202.23Z" transform="translate(-57.61 -93.04)"/><path class="cls-11" d="M272,196.61c1.49,1,2.43,2.2,2.1,2.62s-1.8-.06-3.29-1.08-2.43-2.2-2.1-2.62S270.54,195.59,272,196.61Z" transform="translate(-57.61 -93.04)"/><path class="cls-12" d="M284.87,190.7l.14-.13a.37.37,0,0,0-.16-.63l-.14,0a.38.38,0,0,0-.48.37v.17A.37.37,0,0,0,284.87,190.7Z" transform="translate(-57.61 -93.04)"/><circle class="cls-13" cx="380.25" cy="127.09" r="3.88"/><circle class="cls-14" cx="366.88" cy="111.4" r="7.17"/><circle class="cls-15" cx="394.03" cy="98" r="12.22"/><circle class="cls-16" cx="380.25" cy="74.41" r="7.17"/><ellipse class="cls-17" cx="307.57" cy="186.96" rx="3.82" ry="9.16"/><path class="cls-1" d="M300.44,270.75" transform="translate(-57.61 -93.04)"/></svg>